<?xml version="1.0" encoding="utf-8"?>
<!-- Generator: Adobe Illustrator 21.1.0, SVG Export Plug-In . SVG Version: 6.00 Build 0)  -->
<svg version="1.1" id="Layer_1" xmlns="http://www.w3.org/2000/svg" xmlns:xlink="http://www.w3.org/1999/xlink" x="0px" y="0px"
	 width="307px" height="112px" viewBox="0 0 307 112" style="enable-background:new 0 0 307 112;" xml:space="preserve">
<style type="text/css">
	.st0{fill:#173976;}
	.st1{enable-background:new    ;}
	.st2{fill:#FFFFFF;}
	.st3{fill:#72CCE4;}
</style>
<title>despace-final</title>
<rect class="st0" width="307" height="112"/>
<g class="st1">
	<path class="st2" d="M72.2,74.5l-0.5-3.1c-1,2.3-3,3.5-6,3.5c-2.5,0-4.4-0.9-5.8-2.7c-1.4-1.8-2.1-4.5-2.1-8.1
		c0-7.2,2.9-10.9,8.6-10.9c2.6,0,4.2,0.7,5.1,2.1V42.5h-2.7v-0.8h10.9v31.9h2.1v0.8H72.2z M66.7,71.5c0.3,1,0.9,1.5,1.8,1.5
		c0.9,0,1.6-0.4,2.2-1.1c0.6-0.8,0.9-1.9,0.9-3.4V59c0-1.3-0.2-2.3-0.7-3.2c-0.5-0.9-1.2-1.3-2.2-1.3s-1.6,0.6-2,1.9
		c-0.3,1.3-0.5,3.5-0.5,6.7v2.3C66.2,68.5,66.4,70.5,66.7,71.5z"/>
</g>
<g class="st1">
	<path class="st2" d="M88.7,72c-1.9-1.9-2.8-4.6-2.8-8.1s1.1-6.1,3.2-7.9s4.8-2.7,8.1-2.7c6.6,0,9.8,3.3,9.5,10H94.3v1.7
		c0,2.9,0.4,5,1.1,6.5c0.7,1.5,2,2.2,3.8,2.2c3.4,0,5.6-1.8,6.6-5.4l0.8,0.1c-0.6,2.1-1.5,3.7-3,4.9c-1.4,1.2-3.6,1.7-6.5,1.7
		C93.4,74.9,90.6,73.9,88.7,72z M94.4,62.3h4.5v-2.1c0-2.4-0.1-4-0.4-4.8c-0.3-0.9-0.8-1.3-1.7-1.3c-0.8,0-1.4,0.5-1.8,1.4
		c-0.4,0.9-0.6,2.5-0.6,4.7V62.3z"/>
</g>
<g class="st1">
	<path class="st2" d="M131.4,71.7l1.3-1.7c2.4,1.9,5.1,2.9,8,2.9c3,0,5.4-1.7,5.4-4.2v-0.1c0-2.6-2.8-3.6-5.9-4.4
		c-3.6-1-7.6-2.1-7.6-6.1V58c0-3.6,3-6.1,7.3-6.1c2.7,0,5.7,1,7.9,2.4l-1.1,1.8c-2-1.3-4.5-2.2-6.8-2.2c-3,0-5.1,1.7-5.1,3.9v0.1
		c0,2.5,3,3.4,6.2,4.3c3.6,1,7.3,2.3,7.3,6.2v0.1c0,4-3.4,6.5-7.7,6.5C137.3,74.9,133.8,73.6,131.4,71.7z"/>
	<path class="st2" d="M154.1,52.3h2.1v5c1.9-2.9,4.7-5.5,9.1-5.5c5.4,0,10.8,4.3,10.8,11.5v0.1c0,7.2-5.4,11.6-10.8,11.6
		c-4.4,0-7.3-2.5-9.1-5.3v11.8h-2.1V52.3z M173.9,63.5L173.9,63.5c0-5.9-4-9.7-8.7-9.7c-4.6,0-9.1,3.9-9.1,9.5v0.1
		c0,5.7,4.4,9.5,9.1,9.5C170,72.9,173.9,69.4,173.9,63.5z"/>
	<path class="st2" d="M180.1,68L180.1,68c0-4.7,4-7.3,9.7-7.3c3.1,0,5.2,0.4,7.4,1v-1c0-4.5-2.7-6.8-7.3-6.8c-2.7,0-4.9,0.7-7,1.8
		l-0.8-1.9c2.4-1.1,4.8-1.9,7.9-1.9c3,0,5.4,0.8,7,2.4c1.5,1.5,2.3,3.5,2.3,6.3v13.8h-2.1v-3.7c-1.5,2.1-4.3,4.2-8.5,4.2
		C184.6,75,180.1,72.6,180.1,68z M197.2,66.2v-2.5c-1.9-0.5-4.4-1-7.5-1c-4.7,0-7.3,2.1-7.3,5.2v0.1c0,3.2,3,5.1,6.4,5.1
		C193.4,73,197.2,70.2,197.2,66.2z"/>
</g>
<g class="st1">
	<path class="st2" d="M203.9,63.5L203.9,63.5c0-6.3,5-11.7,11.3-11.7c4.2,0,6.8,1.9,8.9,4.1l-1.5,1.6c-1.9-2-4.1-3.7-7.4-3.7
		c-5.1,0-9,4.2-9,9.5v0.1c0,5.4,4,9.6,9.1,9.6c3.1,0,5.6-1.6,7.4-3.7l1.5,1.3c-2.3,2.6-5,4.4-9.1,4.4
		C208.8,75,203.9,69.7,203.9,63.5z"/>
</g>
<g class="st1">
	<path class="st2" d="M227,63.4L227,63.4c0-6.5,4.5-11.7,10.5-11.7c6.2,0,10.2,5,10.2,11.6c0,0.4,0,0.5,0,0.9h-18.4
		c0.4,5.5,4.4,8.8,8.7,8.8c3.4,0,5.8-1.5,7.6-3.5l1.5,1.3c-2.3,2.4-4.9,4.2-9.2,4.2C232.1,75,227,70.3,227,63.4z M245.4,62.3
		c-0.3-4.5-2.9-8.6-8-8.6c-4.4,0-7.8,3.7-8.2,8.6H245.4z"/>
</g>
<path class="st2" d="M124.2,42.6h2.8l-13.7,39.5h-2.9L124.2,42.6z"/>
<path class="st3" d="M127,42.6h2.9l-13.6,39.5h-2.9L127,42.6z"/>
</svg>
